<svg width="48" height="48" viewBox="0 0 48 48" fill="none" xmlns="http://www.w3.org/2000/svg">
<path d="M2.66669 18.6667L15.1734 30.6667V18.6667L9.84002 2.29334C9.56669 1.45067 8.27202 1.45067 8.00002 2.29334L2.66669 18.6667Z" fill="#616161"/>
<path d="M45.3333 18.6667L32.8267 30.6667V18.6667L38.16 2.29334C38.4333 1.45067 39.728 1.45067 40 2.29334L45.3333 18.6667Z" fill="#616161"/>
<path d="M24 45.84L4 18.6667H44L24 45.84Z" fill="#616161"/>
<path d="M24 45.84L15.1734 18.6667H2.66669L8.00002 33.3333L24 45.84Z" fill="#717171"/>
<path d="M24 45.84L32.8267 18.6667H45.3333L40 33.3333L24 45.84Z" fill="#717171"/>
<path d="M2.66666 18.6667L0.133332 26.88C-0.106668 27.6333 0.133332 28.48 0.799998 28.96L24.0267 45.84L2.66666 18.6667Z" fill="#838383"/>
<path d="M45.3333 18.6667L47.8667 26.88C48.1067 27.6333 47.8667 28.48 47.2 28.96L24 45.84L45.3333 18.6667Z" fill="#838383"/>
</svg>
