<svg width="42" height="48" viewBox="0 0 42 48" fill="none" xmlns="http://www.w3.org/2000/svg">
<path d="M41.8348 23.6688C41.6284 27.7792 40.5963 31.0233 38.7386 33.4012C36.881 35.7791 34.3954 36.9682 31.282 36.9682C28.0655 36.9682 26.0015 35.5414 25.0898 32.6878C24.161 34.1316 23.0945 35.2102 21.8904 35.9236C20.7036 36.6199 19.4737 36.9682 18.2008 36.9682C15.7584 36.9682 13.9092 35.983 12.6536 34.0127C11.3979 32.0424 10.9335 29.3164 11.2603 25.8344C11.5183 23.0318 12.1634 20.5351 13.1954 18.344C14.2447 16.1359 15.5864 14.4034 17.2203 13.1465C18.8716 11.8896 20.6004 11.2611 22.4065 11.2611C23.7998 11.2611 25.0468 11.448 26.1477 11.8216C27.2485 12.1783 28.4869 12.8917 29.863 13.9618L28.5214 28.0764C28.1945 32 29.2954 33.9617 31.824 33.9617C33.7676 33.9617 35.3416 33.0106 36.5456 31.1083C37.7496 29.2059 38.4032 26.7262 38.5064 23.6688C38.8333 17.0616 37.5861 12.0255 34.7653 8.5605C31.9615 5.09554 27.6871 3.36306 21.942 3.36306C18.4847 3.36306 15.4144 4.21231 12.731 5.91083C10.0477 7.59235 7.93196 10.0297 6.38389 13.2229C4.83582 16.4162 3.96717 20.1018 3.77797 24.2803C3.57155 28.4926 4.08757 32.1529 5.32603 35.2611C6.56449 38.3524 8.44799 40.7133 10.9765 42.3439C13.5222 43.9915 16.5926 44.8152 20.1875 44.8152C21.7356 44.8152 23.2837 44.6284 24.8318 44.2548C26.397 43.8811 27.6958 43.397 28.7278 42.8026L29.6824 45.7324C28.6159 46.3949 27.1969 46.9385 25.4252 47.363C23.6707 47.7877 21.8904 48 20.0843 48C15.7841 48 12.086 47.0404 8.98982 45.1211C5.89366 43.2187 3.57155 40.467 2.02347 36.8662C0.492608 33.2824 -0.169624 29.0871 0.0367859 24.2803C0.243196 19.6093 1.30105 15.4141 3.21034 11.6943C5.11963 7.95754 7.70835 5.07856 10.9765 3.05733C14.2447 1.01911 17.9343 0 22.0453 0C26.3282 0 30.0007 0.951163 33.0623 2.8535C36.1242 4.75583 38.4032 7.49894 39.8997 11.0828C41.3962 14.6666 42.0412 18.862 41.8348 23.6688ZM15.3627 25.8344C15.122 28.2463 15.3455 30.0976 16.0336 31.3886C16.7388 32.6794 17.8483 33.3248 19.3619 33.3248C20.394 33.3248 21.383 32.8918 22.329 32.0255C23.2923 31.1593 24.0835 29.9193 24.7028 28.3057L24.7286 28.0764L25.9155 15.2611C24.9521 14.7686 23.9201 14.5222 22.8193 14.5222C20.8068 14.5222 19.1383 15.5329 17.8138 17.5541C16.5065 19.5754 15.6896 22.3355 15.3627 25.8344Z" fill="#616161"/>
</svg>
