<svg width="48" height="48" viewBox="0 0 48 48" fill="none" xmlns="http://www.w3.org/2000/svg">
<path fill-rule="evenodd" clip-rule="evenodd" d="M14 1.25V12.75C14 13.44 13.44 14 12.75 14H1.25C0.56 14 0 13.44 0 12.75V1.25C0 0.56 0.56 0 1.25 0H12.75C13.44 0 14 0.56 14 1.25Z" fill="white"/>
<path fill-rule="evenodd" clip-rule="evenodd" d="M14 1.25V12.75C14 13.44 13.44 14 12.75 14H1.25C0.56 14 0 13.44 0 12.75V1.25C0 0.56 0.56 0 1.25 0H12.75C13.44 0 14 0.56 14 1.25ZM5 5H6.85V6.016H6.893C7.259 5.541 8.018 4.938 9.25 4.938C11.125 4.938 12 5.808 12 8V12H10V8.75C10 7.313 9.672 6.875 8.632 6.875C7.5 6.875 7 7.75 7 9V12H5V5ZM2 12H4V5H2V12ZM4.335 3C4.335 3.737 3.737 4.335 3 4.335C2.263 4.335 1.665 3.737 1.665 3C1.665 2.263 2.263 1.665 3 1.665C3.737 1.665 4.335 2.263 4.335 3Z" fill="#616161"/>
<path d="M12.5431 0.291702H1.45849C0.814081 0.291702 0.291687 0.814096 0.291687 1.4585V12.5431C0.291687 13.1875 0.814081 13.7099 1.45849 13.7099H12.5431C13.1875 13.7099 13.7099 13.1875 13.7099 12.5431V1.4585C13.7099 0.814096 13.1875 0.291702 12.5431 0.291702Z" fill="white"/>
<path fill-rule="evenodd" clip-rule="evenodd" d="M0 1.16969C0 0.523686 0.523325 0 1.16969 0H12.8319C13.4779 0 14.0016 0.523325 14.0016 1.16969V12.8319C14.0016 13.4779 13.4783 14.0016 12.8319 14.0016H1.16969C0.523686 14.0016 0 13.4783 0 12.8319V1.16969ZM5.5423 5.33811H7.43835V6.2908C7.71167 5.74299 8.41204 5.2506 9.46421 5.2506C11.481 5.2506 11.9597 6.34097 11.9597 8.34175V12.0472H9.9178V8.79738C9.9178 7.658 9.64448 7.01538 8.94936 7.01538C7.98529 7.01538 7.5842 7.70817 7.5842 8.79738V12.0472H5.5423V5.33811ZM2.0419 11.9597H4.0838V5.2506H2.0419V11.9597ZM4.3755 3.06285C4.3755 3.78772 3.78772 4.3755 3.06285 4.3755C2.33798 4.3755 1.7502 3.78772 1.7502 3.06285C1.7502 2.33798 2.33798 1.7502 3.06285 1.7502C3.78772 1.7502 4.3755 2.33798 4.3755 3.06285Z" fill="#616161"/>
<path fill-rule="evenodd" clip-rule="evenodd" d="M19.479 0H1.583C0.728 0 0 0.677 0 1.511V19.488C0 20.323 0.478 21 1.333 21H19.229C20.086 21 21 20.323 21 19.488V1.511C21 0.677 20.336 0 19.479 0Z" fill="white"/>
<path fill-rule="evenodd" clip-rule="evenodd" d="M19.479 0H1.583C0.728 0 0 0.677 0 1.511V19.488C0 20.323 0.478 21 1.333 21H19.229C20.086 21 21 20.323 21 19.488V1.511C21 0.677 20.336 0 19.479 0ZM8 8H10.827V9.441H10.858C11.289 8.664 12.562 7.875 14.136 7.875C17.157 7.875 18 9.479 18 12.45V18H15V12.997C15 11.667 14.469 10.5 13.227 10.5C11.719 10.5 11 11.521 11 13.197V18H8V8ZM3 18H6V8H3V18ZM6.375 4.5C6.375 5.536 5.536 6.375 4.5 6.375C3.464 6.375 2.625 5.536 2.625 4.5C2.625 3.464 3.464 2.625 4.5 2.625C5.536 2.625 6.375 3.464 6.375 4.5Z" fill="#616161"/>
<path d="M18.8125 0.4375H2.1875C1.221 0.4375 0.4375 1.221 0.4375 2.1875V18.8125C0.4375 19.779 1.221 20.5625 2.1875 20.5625H18.8125C19.779 20.5625 20.5625 19.779 20.5625 18.8125V2.1875C20.5625 1.221 19.779 0.4375 18.8125 0.4375Z" fill="white"/>
<path fill-rule="evenodd" clip-rule="evenodd" d="M0 1.75433C0 0.78544 0.784898 0 1.75433 0H19.2457C20.2146 0 21 0.784898 21 1.75433V19.2457C21 20.2146 20.2151 21 19.2457 21H1.75433C0.78544 21 0 20.2151 0 19.2457V1.75433ZM8.3125 8.00625H11.1562V9.43512C11.5662 8.6135 12.6166 7.875 14.1947 7.875C17.2196 7.875 17.9375 9.51037 17.9375 12.5112V18.0687H14.875V13.1946C14.875 11.4857 14.4651 10.5219 13.4225 10.5219C11.9766 10.5219 11.375 11.5609 11.375 13.1946V18.0687H8.3125V8.00625ZM3.0625 17.9375H6.125V7.875H3.0625V17.9375ZM6.5625 4.59375C6.5625 5.68094 5.68094 6.5625 4.59375 6.5625C3.50656 6.5625 2.625 5.68094 2.625 4.59375C2.625 3.50656 3.50656 2.625 4.59375 2.625C5.68094 2.625 6.5625 3.50656 6.5625 4.59375Z" fill="#616161"/>
<path fill-rule="evenodd" clip-rule="evenodd" d="M25.375 0H2.625C1.175 0 0 1.175 0 2.625V25.375C0 26.825 1.175 28 2.625 28H25.375C26.825 28 28 26.825 28 25.375V2.625C28 1.175 26.825 0 25.375 0Z" fill="white"/>
<path fill-rule="evenodd" clip-rule="evenodd" d="M25.375 0H2.625C1.175 0 0 1.175 0 2.625V25.375C0 26.825 1.175 28 2.625 28H25.375C26.825 28 28 26.825 28 25.375V2.625C28 1.175 26.825 0 25.375 0ZM14.8747 12.025V10H10.9997V24H14.9997V17.375C14.9997 15.603 15.6627 13.875 17.6497 13.875C19.4667 13.875 19.9997 14.965 19.9997 16.875V24H23.9997V14.975C23.9997 11.75 22.2917 9.875 19.0137 9.875C16.9227 9.875 15.4487 11.025 14.8747 12.025ZM4 24H8V10H4V24ZM6 3.665C4.71 3.665 3.665 4.71 3.665 6C3.665 7.29 4.71 8.335 6 8.335C7.29 8.335 8.335 7.29 8.335 6C8.335 4.71 7.29 3.665 6 3.665Z" fill="#616161"/>
<path d="M25.0819 0.583298H2.91651C1.62792 0.583298 0.583313 1.62791 0.583313 2.9165V25.0819C0.583313 26.3705 1.62792 27.4151 2.91651 27.4151H25.0819C26.3705 27.4151 27.4151 26.3705 27.4151 25.0819V2.9165C27.4151 1.62791 26.3705 0.583298 25.0819 0.583298Z" fill="white"/>
<path fill-rule="evenodd" clip-rule="evenodd" d="M0 2.33897C0 1.04719 1.04647 0 2.33897 0H25.6594C26.9512 0 27.9984 1.04647 27.9984 2.33897V25.6594C27.9984 26.9512 26.9519 27.9984 25.6594 27.9984H2.33897C1.04719 27.9984 0 26.9519 0 25.6594V2.33897ZM11.0827 10.6744H14.8741V12.5794C15.4207 11.484 16.8212 10.4994 18.9252 10.4994C22.9581 10.4994 23.9153 12.6798 23.9153 16.6806V24.0903H19.8322V17.5917C19.8322 15.3134 19.2856 14.0284 17.8956 14.0284C15.9678 14.0284 15.1658 15.4137 15.1658 17.5917V24.0903H11.0827V10.6744ZM4.0831 23.9153H8.1662V10.4994H4.0831V23.9153ZM8.7495 6.12465C8.7495 7.57415 7.57415 8.7495 6.12465 8.7495C4.67515 8.7495 3.4998 7.57415 3.4998 6.12465C3.4998 4.67515 4.67515 3.4998 6.12465 3.4998C7.57415 3.4998 8.7495 4.67515 8.7495 6.12465Z" fill="#616161"/>
<path fill-rule="evenodd" clip-rule="evenodd" d="M2.8 34H31.2C32.746 34 34 32.746 34 31.2V2.8C34 1.254 32.746 0 31.2 0H2.8C1.254 0 0 1.254 0 2.8V31.2C0 32.746 1.254 34 2.8 34Z" fill="white"/>
<path fill-rule="evenodd" clip-rule="evenodd" d="M2.8 34H31.2C32.746 34 34 32.746 34 31.2V2.8C34 1.254 32.746 0 31.2 0H2.8C1.254 0 0 1.254 0 2.8V31.2C0 32.746 1.254 34 2.8 34ZM13 13H17.75V15.391C18.387 14.114 20.242 12.75 22.695 12.75C27.397 12.75 29 14.875 29 19.922V29H24V20.984C24 18.328 23.481 16.875 21.542 16.875C18.921 16.875 18 18.867 18 20.984V29H13V13ZM5 29H10V13H5V29ZM10.55 7.5C10.55 9.184 9.184 10.55 7.5 10.55C5.816 10.55 4.45 9.184 4.45 7.5C4.45 5.815 5.816 4.45 7.5 4.45C9.184 4.45 10.55 5.815 10.55 7.5Z" fill="#616161"/>
<path d="M30.4569 0.708298H3.54151C1.97678 0.708298 0.708313 1.97676 0.708313 3.5415V30.4569C0.708313 32.0216 1.97678 33.2901 3.54151 33.2901H30.4569C32.0216 33.2901 33.2901 32.0216 33.2901 30.4569V3.5415C33.2901 1.97676 32.0216 0.708298 30.4569 0.708298Z" fill="white"/>
<path fill-rule="evenodd" clip-rule="evenodd" d="M0 2.84021C0 1.2716 1.27073 0 2.84021 0H31.1582C32.7268 0 33.9984 1.27073 33.9984 2.84021V31.1582C33.9984 32.7268 32.7277 33.9984 31.1582 33.9984H2.84021C1.2716 33.9984 0 32.7277 0 31.1582V2.84021ZM13.4577 12.9619H18.0617V15.2752C18.7253 13.945 20.426 12.7494 22.9808 12.7494C27.878 12.7494 29.0403 15.397 29.0403 20.2553V29.2528H24.0822V21.3616C24.0822 18.595 23.4185 17.0346 21.7306 17.0346C19.3897 17.0346 18.4158 18.7168 18.4158 21.3616V29.2528H13.4577V12.9619ZM4.9581 29.0403H9.9162V12.7494H4.9581V29.0403ZM10.6245 7.43715C10.6245 9.19728 9.19728 10.6245 7.43715 10.6245C5.67703 10.6245 4.2498 9.19728 4.2498 7.43715C4.2498 5.67703 5.67703 4.2498 7.43715 4.2498C9.19728 4.2498 10.6245 5.67703 10.6245 7.43715Z" fill="#616161"/>
<path fill-rule="evenodd" clip-rule="evenodd" d="M40 3.5V36.5C40 38.434 38.434 40 36.5 40H3.5C1.566 40 0 38.434 0 36.5V3.5C0 1.566 1.566 0 3.5 0H36.5C38.434 0 40 1.566 40 3.5Z" fill="white"/>
<path fill-rule="evenodd" clip-rule="evenodd" d="M40 3.5V36.5C40 38.434 38.434 40 36.5 40H3.5C1.566 40 0 38.434 0 36.5V3.5C0 1.566 1.566 0 3.5 0H36.5C38.434 0 40 1.566 40 3.5ZM15 15H20.875V18.333C21.542 17.146 23 14.7 26.957 14.7C33.137 14.7 34 18.68 34 23.967V34H28V25.018C28 22.183 27.542 19.875 24.922 19.875C21.75 19.875 21 21.956 21 24.516V34H15V15ZM6 34H12V15H6V34ZM12.651 8.99998C12.651 11.016 11.017 12.65 9.00098 12.65C6.98398 12.65 5.34998 11.016 5.34998 8.99998C5.34998 6.98398 6.98398 5.34998 9.00098 5.34998C11.017 5.34998 12.651 6.98398 12.651 8.99998Z" fill="#616161"/>
<path d="M35.8319 0.833298H4.16651C2.32564 0.833298 0.833313 2.32562 0.833313 4.1665V35.8319C0.833313 37.6728 2.32564 39.1651 4.16651 39.1651H35.8319C37.6728 39.1651 39.1651 37.6728 39.1651 35.8319V4.1665C39.1651 2.32562 37.6728 0.833298 35.8319 0.833298Z" fill="white"/>
<path fill-rule="evenodd" clip-rule="evenodd" d="M0 3.34144C0 1.49602 1.49498 0 3.34144 0H36.657C38.5024 0 39.9984 1.49498 39.9984 3.34144V36.657C39.9984 38.5024 38.5034 39.9984 36.657 39.9984H3.34144C1.49602 39.9984 0 38.5034 0 36.657V3.34144ZM15.8327 15.2494H21.2492V17.9709C22.03 16.406 24.0307 14.9994 27.0364 14.9994C32.7979 14.9994 34.1653 18.1143 34.1653 23.8299V34.4153H28.3322V25.1315C28.3322 21.8766 27.5514 20.0409 25.5656 20.0409C22.8116 20.0409 21.6658 22.02 21.6658 25.1315V34.4153H15.8327V15.2494ZM5.8331 34.1653H11.6662V14.9994H5.8331V34.1653ZM12.4995 8.74965C12.4995 10.8204 10.8204 12.4995 8.74965 12.4995C6.6789 12.4995 4.9998 10.8204 4.9998 8.74965C4.9998 6.6789 6.6789 4.9998 8.74965 4.9998C10.8204 4.9998 12.4995 6.6789 12.4995 8.74965Z" fill="#616161"/>
<path d="M43 1H5C2.79086 1 1 2.79086 1 5V43C1 45.2091 2.79086 47 5 47H43C45.2091 47 47 45.2091 47 43V5C47 2.79086 45.2091 1 43 1Z" fill="white"/>
<path fill-rule="evenodd" clip-rule="evenodd" d="M0 4.00989C0 1.79529 1.79405 0 4.00989 0H43.9901C46.2047 0 48 1.79405 48 4.00989V43.9901C48 46.2047 46.2059 48 43.9901 48H4.00989C1.79529 48 0 46.2059 0 43.9901V4.00989ZM19 18.3H25.5V21.566C26.437 19.688 28.838 18 32.445 18C39.359 18 41 21.738 41 28.597V41.3H34V30.159C34 26.253 33.063 24.05 30.68 24.05C27.375 24.05 26 26.425 26 30.159V41.3H19V18.3ZM7 41H14V18H7V41ZM15 10.5C15 12.985 12.985 15 10.5 15C8.015 15 6 12.985 6 10.5C6 8.015 8.015 6 10.5 6C12.985 6 15 8.015 15 10.5Z" fill="#616161"/>
</svg>
