<svg width="48" height="48" viewBox="0 0 48 48" fill="none" xmlns="http://www.w3.org/2000/svg">
<path fill-rule="evenodd" clip-rule="evenodd" d="M0 4.00989C0 1.79529 1.79405 0 4.00989 0H43.9901C46.2047 0 48 1.79405 48 4.00989V43.9901C48 46.2047 46.2059 48 43.9901 48H4.00989C1.79529 48 0 46.2059 0 43.9901V4.00989ZM19 18.3H25.5V21.566C26.437 19.688 28.838 18 32.445 18C39.359 18 41 21.738 41 28.597V41.3H34V30.159C34 26.253 33.063 24.05 30.68 24.05C27.375 24.05 26 26.425 26 30.159V41.3H19V18.3ZM7 41H14V18H7V41ZM15 10.5C15 12.985 12.985 15 10.5 15C8.015 15 6 12.985 6 10.5C6 8.015 8.015 6 10.5 6C12.985 6 15 8.015 15 10.5Z" fill="#616161"/>
</svg>
